<?xml version="1.0" encoding="utf-8"?>
<!-- Generator: Adobe Illustrator 24.3.0, SVG Export Plug-In . SVG Version: 6.00 Build 0)  -->
<svg version="1.1" id="Layer_1" xmlns="http://www.w3.org/2000/svg" xmlns:xlink="http://www.w3.org/1999/xlink" x="0px" y="0px"
	 viewBox="0 0 1080 1080" style="enable-background:new 0 0 1080 1080;" xml:space="preserve">
<style type="text/css">
	.st0{display:none;}
	.st1{display:inline;}
	.st2{display:none;fill:#FFFFFF;}
	.st3{fill:url(#SVGID_1_);}
	.st4{fill:url(#SVGID_2_);}
	.st5{fill:url(#SVGID_3_);}
	.st6{fill:url(#SVGID_4_);}
	.st7{fill:url(#SVGID_5_);}
	.st8{fill:url(#SVGID_6_);}
	.st9{fill:url(#SVGID_7_);}
	.st10{fill:url(#SVGID_8_);}
	.st11{fill:url(#SVGID_9_);}
	.st12{fill:url(#SVGID_10_);}
	.st13{fill:url(#SVGID_11_);}
	.st14{fill:url(#SVGID_12_);}
	.st15{fill:url(#SVGID_13_);}
	.st16{fill:url(#SVGID_14_);}
	.st17{fill:url(#SVGID_15_);}
	.st18{fill:url(#SVGID_16_);}
	.st19{fill:url(#SVGID_17_);}
	.st20{fill:url(#SVGID_18_);}
	.st21{fill:url(#SVGID_19_);}
	.st22{fill:url(#SVGID_20_);}
	.st23{fill:url(#SVGID_21_);}
	.st24{fill:url(#SVGID_22_);}
	.st25{fill:url(#SVGID_23_);}
	.st26{fill:url(#SVGID_24_);}
	.st27{fill:url(#SVGID_25_);}
	.st28{fill:url(#SVGID_26_);}
	.st29{fill:#323F45;}
	.st30{fill:#124B90;}
</style>
<g class="st0">
	<g class="st1">
		<rect x="-406.31" y="-385.55" class="st2" width="1881.29" height="1859.74"/>
		<g>
			<g id="_x35_70_x2C__Business_x2C__consumer_x2C__insight_x2C__strategy">
				<g>
					<linearGradient id="SVGID_1_" gradientUnits="userSpaceOnUse" x1="500.4761" y1="870.7097" x2="571.96" y2="870.7097">
						<stop  offset="0.2593" style="stop-color:#FFDB6F"/>
						<stop  offset="1" style="stop-color:#FDBC5F"/>
					</linearGradient>
					<rect x="500.48" y="765.64" class="st3" width="71.48" height="210.15"/>
					<linearGradient id="SVGID_2_" gradientUnits="userSpaceOnUse" x1="295.4132" y1="869.7742" x2="468.494" y2="869.7742">
						<stop  offset="0.2593" style="stop-color:#FFDB6F"/>
						<stop  offset="1" style="stop-color:#FDBC5F"/>
					</linearGradient>
					<polygon class="st4" points="295.41,973.91 363.14,973.91 468.49,765.64 400.76,765.64 					"/>
					<linearGradient id="SVGID_3_" gradientUnits="userSpaceOnUse" x1="602.0627" y1="869.7742" x2="775.1425" y2="869.7742">
						<stop  offset="0.2593" style="stop-color:#FFDB6F"/>
						<stop  offset="1" style="stop-color:#FDBC5F"/>
					</linearGradient>
					<polygon class="st5" points="602.06,765.64 707.42,973.91 775.14,973.91 669.79,765.64 					"/>
					<linearGradient id="SVGID_4_" gradientUnits="userSpaceOnUse" x1="500.4761" y1="79.3874" x2="571.96" y2="79.3874">
						<stop  offset="0.2593" style="stop-color:#FFDB6F"/>
						<stop  offset="1" style="stop-color:#FDBC5F"/>
					</linearGradient>
					<path class="st6" d="M570.08,79.38c0-18.6-15.05-35.33-35.74-35.33c-20.7,0-33.86,16.74-33.86,35.33v35.34h71.48V79.38H570.08z
						"/>
					<linearGradient id="SVGID_5_" gradientUnits="userSpaceOnUse" x1="171.2436" y1="425.2878" x2="265.3113" y2="425.2878">
						<stop  offset="0.2593" style="stop-color:#FFDB6F"/>
						<stop  offset="1" style="stop-color:#FDBC5F"/>
					</linearGradient>
					<path class="st7" d="M265.31,425.29c0-26.03-20.7-46.49-47.03-46.49c-26.34,0-47.04,20.47-47.04,46.49
						c0,26.04,20.7,46.49,47.04,46.49C242.74,471.78,265.31,451.33,265.31,425.29z"/>
					<linearGradient id="SVGID_6_" gradientUnits="userSpaceOnUse" x1="7.5712" y1="425.2971" x2="427.1035" y2="425.2971">
						<stop  offset="0.2593" style="stop-color:#FFDB6F"/>
						<stop  offset="1" style="stop-color:#FDBC5F"/>
					</linearGradient>
					<path class="st8" d="M427.1,425.29c-52.68-68.8-129.81-107.86-210.71-107.86c-52.67,0-101.59,16.75-144.86,46.49l0,0
						c-24.45,16.75-45.15,37.19-63.96,61.37c18.82,24.19,41.39,44.64,63.96,61.39l0,0c43.27,29.75,94.07,46.49,144.86,46.49
						C297.29,533.17,372.55,494.1,427.1,425.29z M144.91,425.29c0-39.05,31.98-70.67,71.48-70.67c39.51,0,71.49,31.62,71.49,70.67
						c0,39.07-31.98,70.69-71.49,70.69C176.89,495.97,144.91,464.35,144.91,425.29z"/>
					<linearGradient id="SVGID_7_" gradientUnits="userSpaceOnUse" x1="77.1759" y1="485.7295" x2="995.2518" y2="485.7295">
						<stop  offset="0.2593" style="stop-color:#FFDB6F"/>
						<stop  offset="1" style="stop-color:#FDBC5F"/>
					</linearGradient>
					<path class="st9" d="M936.93,741.44c31.98,0,58.32-26.03,58.32-57.64V230.01H77.18V332.3c43.28-24.17,90.31-39.05,139.22-39.05
						c90.31,0,176.85,44.64,233.29,124.61c3.76,3.72,3.76,9.3,0,13.02c-58.32,78.09-142.98,124.59-233.29,124.59
						c-48.91,0-97.83-13-139.22-39.05V683.8c0,31.62,26.34,57.64,58.33,57.64h259.62h94.07h94.06h94.07H936.93z M771.38,661.48
						h-47.04V497.83h47.04V661.48z M840.99,661.48h-47.03V475.5h47.03V661.48z M865.44,451.33h47.04v210.15h-47.04V451.33z
						 M558.79,661.48h-47.03v-92.99h47.03V661.48z M538.1,508.98c-1.88,0-1.88,0-3.76,0c-5.65,0-9.41-3.7-11.29-7.43
						c-1.88-5.58,1.88-13.02,7.52-14.87l306.66-92.99c5.64-1.87,13.17,1.85,15.05,7.43c1.88,5.58-1.88,13.02-7.53,14.87
						L538.1,508.98z M630.29,661.48h-47.04V544.32h47.04V661.48z"/>
					<linearGradient id="SVGID_8_" gradientUnits="userSpaceOnUse" x1="5.691" y1="172.37" x2="1066.7441" y2="172.37">
						<stop  offset="0.2593" style="stop-color:#FFDB6F"/>
						<stop  offset="1" style="stop-color:#FDBC5F"/>
					</linearGradient>
					<path class="st10" d="M41.43,207.71H65.9h940.64h24.46c18.82,0,35.75-14.89,35.75-35.34s-15.05-35.34-35.75-35.34H583.25
						h-94.06H41.43c-18.82,0-35.74,14.89-35.74,35.34S22.62,207.71,41.43,207.71z"/>
					<linearGradient id="SVGID_9_" gradientUnits="userSpaceOnUse" x1="77.1759" y1="951.6104" x2="171.2436" y2="951.6104">
						<stop  offset="0.2593" style="stop-color:#FFDB6F"/>
						<stop  offset="1" style="stop-color:#FDBC5F"/>
					</linearGradient>
					<path class="st11" d="M124.21,905.12c-26.34,0-47.04,20.45-47.04,46.49c0,26.03,20.7,46.49,47.04,46.49
						c26.33,0,47.03-20.47,47.03-46.49C171.24,925.57,150.55,905.12,124.21,905.12z"/>
					<linearGradient id="SVGID_10_" gradientUnits="userSpaceOnUse" x1="901.1934" y1="1009.2551" x2="1017.8273" y2="1009.2551">
						<stop  offset="0.2593" style="stop-color:#FFDB6F"/>
						<stop  offset="1" style="stop-color:#FDBC5F"/>
					</linearGradient>
					<path class="st12" d="M959.51,951.61c-31.98,0-58.32,26.03-58.32,57.64c0,31.62,26.33,57.64,58.32,57.64
						s58.32-26.03,58.32-57.64C1017.83,977.64,991.49,951.61,959.51,951.61z"/>
					<linearGradient id="SVGID_11_" gradientUnits="userSpaceOnUse" x1="229.5689" y1="869.7742" x2="278.4783" y2="869.7742">
						<stop  offset="0.2593" style="stop-color:#FFDB6F"/>
						<stop  offset="1" style="stop-color:#FDBC5F"/>
					</linearGradient>
					<path class="st13" d="M254.02,845.6c13.5,0,24.46,10.83,24.46,24.17c0,13.35-10.95,24.17-24.46,24.17
						c-13.51,0-24.45-10.82-24.45-24.17C229.57,856.43,240.51,845.6,254.02,845.6z"/>
					<linearGradient id="SVGID_12_" gradientUnits="userSpaceOnUse" x1="16.9778" y1="1033.428" x2="65.8965" y2="1033.428">
						<stop  offset="0.2593" style="stop-color:#FFDB6F"/>
						<stop  offset="1" style="stop-color:#FDBC5F"/>
					</linearGradient>
					<path class="st14" d="M41.43,1009.26c13.51,0,24.46,10.83,24.46,24.17c0,13.35-10.95,24.17-24.46,24.17
						c-13.5,0-24.46-10.82-24.46-24.17C16.98,1020.08,27.93,1009.26,41.43,1009.26z"/>
					<linearGradient id="SVGID_13_" gradientUnits="userSpaceOnUse" x1="840.9873" y1="893.9472" x2="889.9047" y2="893.9472">
						<stop  offset="0.2593" style="stop-color:#FFDB6F"/>
						<stop  offset="1" style="stop-color:#FDBC5F"/>
					</linearGradient>
					<path class="st15" d="M865.44,869.77c13.51,0,24.46,10.83,24.46,24.17c0,13.35-10.95,24.17-24.46,24.17
						c-13.5,0-24.45-10.82-24.45-24.17C840.99,880.6,851.94,869.77,865.44,869.77z"/>
					<linearGradient id="SVGID_14_" gradientUnits="userSpaceOnUse" x1="910.6" y1="57.0667" x2="959.5094" y2="57.0667">
						<stop  offset="0.2593" style="stop-color:#FFDB6F"/>
						<stop  offset="1" style="stop-color:#FDBC5F"/>
					</linearGradient>
					<path class="st16" d="M935.06,32.89c13.5,0,24.45,10.83,24.45,24.17c0,13.36-10.95,24.18-24.45,24.18
						c-13.51,0-24.46-10.82-24.46-24.18C910.6,43.71,921.54,32.89,935.06,32.89z"/>
					<linearGradient id="SVGID_15_" gradientUnits="userSpaceOnUse" x1="840.9873" y1="57.0667" x2="889.9047" y2="57.0667">
						<stop  offset="0.2593" style="stop-color:#FFDB6F"/>
						<stop  offset="1" style="stop-color:#FDBC5F"/>
					</linearGradient>
					<path class="st17" d="M865.44,32.89c13.51,0,24.46,10.83,24.46,24.17c0,13.36-10.95,24.18-24.46,24.18
						c-13.5,0-24.45-10.82-24.45-24.18C840.99,43.71,851.94,32.89,865.44,32.89z"/>
					<linearGradient id="SVGID_16_" gradientUnits="userSpaceOnUse" x1="769.4943" y1="57.0667" x2="818.4124" y2="57.0667">
						<stop  offset="0.2593" style="stop-color:#FFDB6F"/>
						<stop  offset="1" style="stop-color:#FDBC5F"/>
					</linearGradient>
					<path class="st18" d="M793.96,32.89c13.5,0,24.45,10.83,24.45,24.17c0,13.36-10.95,24.18-24.45,24.18
						c-13.51,0-24.46-10.82-24.46-24.18C769.49,43.71,780.45,32.89,793.96,32.89z"/>
					<linearGradient id="SVGID_17_" gradientUnits="userSpaceOnUse" x1="699.89" y1="57.0667" x2="748.8082" y2="57.0667">
						<stop  offset="0.2593" style="stop-color:#FFDB6F"/>
						<stop  offset="1" style="stop-color:#FDBC5F"/>
					</linearGradient>
					<path class="st19" d="M724.34,32.89c13.51,0,24.46,10.83,24.46,24.17c0,13.36-10.95,24.18-24.46,24.18
						c-13.5,0-24.45-10.82-24.45-24.18C699.89,43.71,710.84,32.89,724.34,32.89z"/>
					<linearGradient id="SVGID_18_" gradientUnits="userSpaceOnUse" x1="628.3969" y1="57.0667" x2="677.3152" y2="57.0667">
						<stop  offset="0.2593" style="stop-color:#FFDB6F"/>
						<stop  offset="1" style="stop-color:#FDBC5F"/>
					</linearGradient>
					<path class="st20" d="M652.86,32.89c13.5,0,24.45,10.83,24.45,24.17c0,13.36-10.95,24.18-24.45,24.18
						c-13.51,0-24.46-10.82-24.46-24.18C628.4,43.71,639.35,32.89,652.86,32.89z"/>
					<linearGradient id="SVGID_19_" gradientUnits="userSpaceOnUse" x1="393.2413" y1="57.0667" x2="442.1508" y2="57.0667">
						<stop  offset="0.2593" style="stop-color:#FFDB6F"/>
						<stop  offset="1" style="stop-color:#FDBC5F"/>
					</linearGradient>
					<path class="st21" d="M417.7,32.89c13.5,0,24.46,10.83,24.46,24.17c0,13.36-10.95,24.18-24.46,24.18
						c-13.51,0-24.45-10.82-24.45-24.18C393.24,43.71,404.18,32.89,417.7,32.89z"/>
					<linearGradient id="SVGID_20_" gradientUnits="userSpaceOnUse" x1="323.6273" y1="57.0667" x2="372.5461" y2="57.0667">
						<stop  offset="0.2593" style="stop-color:#FFDB6F"/>
						<stop  offset="1" style="stop-color:#FDBC5F"/>
					</linearGradient>
					<path class="st22" d="M348.08,32.89c13.51,0,24.46,10.83,24.46,24.17c0,13.36-10.95,24.18-24.46,24.18
						c-13.5,0-24.46-10.82-24.46-24.18C323.63,43.71,334.58,32.89,348.08,32.89z"/>
					<linearGradient id="SVGID_21_" gradientUnits="userSpaceOnUse" x1="252.1443" y1="57.0667" x2="301.0538" y2="57.0667">
						<stop  offset="0.2593" style="stop-color:#FFDB6F"/>
						<stop  offset="1" style="stop-color:#FDBC5F"/>
					</linearGradient>
					<path class="st23" d="M276.6,32.89c13.5,0,24.46,10.83,24.46,24.17c0,13.36-10.95,24.18-24.46,24.18s-24.45-10.82-24.45-24.18
						C252.14,43.71,263.09,32.89,276.6,32.89z"/>
					<linearGradient id="SVGID_22_" gradientUnits="userSpaceOnUse" x1="182.5304" y1="57.0667" x2="231.4491" y2="57.0667">
						<stop  offset="0.2593" style="stop-color:#FFDB6F"/>
						<stop  offset="1" style="stop-color:#FDBC5F"/>
					</linearGradient>
					<path class="st24" d="M206.99,32.89c13.5,0,24.46,10.83,24.46,24.17c0,13.36-10.95,24.18-24.46,24.18
						c-13.51,0-24.46-10.82-24.46-24.18C182.53,43.71,193.48,32.89,206.99,32.89z"/>
					<linearGradient id="SVGID_23_" gradientUnits="userSpaceOnUse" x1="111.0474" y1="57.0667" x2="159.955" y2="57.0667">
						<stop  offset="0.2593" style="stop-color:#FFDB6F"/>
						<stop  offset="1" style="stop-color:#FDBC5F"/>
					</linearGradient>
					<path class="st25" d="M135.5,32.89c13.5,0,24.45,10.83,24.45,24.17c0,13.36-10.95,24.18-24.45,24.18s-24.45-10.82-24.45-24.18
						C111.05,43.71,122,32.89,135.5,32.89z"/>
					<linearGradient id="SVGID_24_" gradientUnits="userSpaceOnUse" x1="1029.114" y1="916.2678" x2="1078.0328" y2="916.2678">
						<stop  offset="0.2593" style="stop-color:#FFDB6F"/>
						<stop  offset="1" style="stop-color:#FDBC5F"/>
					</linearGradient>
					<path class="st26" d="M1053.58,892.09c13.5,0,24.46,10.83,24.46,24.17c0,13.35-10.95,24.17-24.46,24.17
						c-13.51,0-24.46-10.82-24.46-24.17C1029.11,902.92,1040.07,892.09,1053.58,892.09z"/>
				</g>
			</g>
			<g id="Layer_1_15_">
			</g>
		</g>
	</g>
</g>
<g>
	<g>
		<linearGradient id="SVGID_25_" gradientUnits="userSpaceOnUse" x1="59.8232" y1="542.8452" x2="491.9018" y2="542.8452">
			<stop  offset="0.2593" style="stop-color:#FFDB6F"/>
			<stop  offset="1" style="stop-color:#FDBC5F"/>
		</linearGradient>
		<path class="st27" d="M171.09,108.42c-88.2,75.39-170.7,344.25-52.63,512.11c118.07,167.86,220.49,162.17,226.18,194.88
			c5.69,32.72-28.45,264.59-28.45,264.59H491.9V5.92C372.76,2.67,258.08,34.06,171.09,108.42z"/>
		<linearGradient id="SVGID_26_" gradientUnits="userSpaceOnUse" x1="491.9018" y1="542.9591" x2="1020.347" y2="542.9591">
			<stop  offset="0.2593" style="stop-color:#FFDB6F"/>
			<stop  offset="1" style="stop-color:#FDBC5F"/>
		</linearGradient>
		<path class="st28" d="M933.55,465.47C923.6,410,947.78,223.65,808.37,118.38C668.97,13.11,496.84,6,496.84,6
			c-1.65-0.06-3.29-0.04-4.94-0.08V1080h168.53c0,0,7.11-169.28,59.75-159.32c214.8,48.37,206.26-27.03,203.42-54.06
			c-2.85-27.03-1.42-61.17,9.96-75.39c8.54-12.8,1.42-34.14,1.42-34.14s12.8-5.69,8.54-31.3c4.27-45.52,75.39-24.18,76.82-55.48
			C1021.75,639.02,943.51,520.95,933.55,465.47z"/>
	</g>
	<path class="st29" d="M837.7,257.74c0-20-16.27-36.27-36.27-36.27c-5.47,0-10.61,1.31-15.26,3.48L604.84,107.94
		c0.45-2.27,0.71-4.61,0.71-7c0-20-16.27-36.27-36.27-36.27c-16.68,0-30.62,11.38-34.83,26.74H420.59
		c-4.21-15.36-18.15-26.74-34.83-26.74c-19.99,0-36.26,16.27-36.26,36.27c0,1.99,0.28,3.91,0.59,5.82l-126.82,92.75
		c-5.25-2.95-11.21-4.78-17.64-4.78c-20,0-36.27,16.27-36.27,36.27c0,12.45,6.31,23.45,15.9,29.98l-24.84,153.35
		c-16,3.77-27.99,18.09-27.99,35.22c0,19.99,16.27,36.26,36.26,36.26c1.81,0,3.54-0.28,5.27-0.53l72.99,136.61
		c-5.14,6.26-8.36,14.16-8.36,22.88c0,20,16.27,36.27,36.27,36.27c19.99,0,36.26-16.27,36.26-36.27c0-3.66-0.71-7.13-1.72-10.46
		l88.54-71.96c6.51,6.2,15.26,10.06,24.94,10.06c19.99,0,36.26-16.27,36.26-36.27c0-3.48-0.65-6.79-1.57-9.98l24.56-6.81v406.59
		h-12.79c-15.01,0-27.29,12.28-27.29,27.29v43.49c0,15.01,12.28,27.29,27.29,27.29h43.49c15.01,0,27.29-12.28,27.29-27.29v-43.49
		c0-15.01-12.28-27.29-27.29-27.29h-11.65V514.07l245.79-68.17c6.66,7.98,16.55,13.18,27.73,13.18c20,0,36.27-16.27,36.27-36.26
		c0-12.1-6.02-22.78-15.16-29.37l14.07-100.54C825.8,289.08,837.7,274.82,837.7,257.74z M818.65,257.74
		c0,9.49-7.72,17.21-17.21,17.21s-17.21-7.72-17.21-17.21c0-9.49,7.72-17.21,17.21-17.21S818.65,248.25,818.65,257.74z
		 M771.13,237.92c-2.63,4.01-4.45,8.58-5.32,13.48l-184.11,87.12c-1.67-0.76-3.44-1.3-5.23-1.8l2.25-200.92
		c6.85-1.86,12.86-5.63,17.47-10.77L771.13,237.92z M431.83,501.13c-2.88-0.74-5.85-1.25-8.96-1.25c-1.61,0-3.14,0.27-4.7,0.48
		l-36.07-86.77c5.8-4.84,10.07-11.38,11.97-18.93l138.19-12.82c0.56,1.86,1.21,3.67,2.05,5.39L431.83,501.13z M204.12,441.93
		l121.04-43.41c5.16,13.74,18.33,23.59,33.86,23.59c1.98,0,3.88-0.28,5.77-0.58l35.83,86.19c-0.65,0.51-1.3,1.03-1.91,1.58
		l-194.14-55.82c0.14-1.31,0.4-2.59,0.4-3.94C204.96,446.94,204.65,444.39,204.12,441.93z M394.38,136.05
		c4.21-1.04,8.18-2.71,11.67-5.08l22.08,70.12l2.21-0.7c-10.17,6.43-16.99,17.7-16.99,30.6c0,10.58,4.63,20.03,11.89,26.67
		l-46.57,97.8c-2.8-1.82-5.9-3.15-9.16-4.14L394.38,136.05z M557.42,336.67c-3.97,1.08-7.71,2.69-11.02,4.96l-66.46-90.85
		c3.73-5.7,5.94-12.47,5.94-19.78c0-7.38-2.24-14.23-6.04-19.96l66.62-82.15c3.84,3.14,8.3,5.5,13.21,6.86L557.42,336.67z
		 M393.61,375.56c-0.43-1.43-0.81-2.87-1.41-4.22l49.94-104.87c2.41,0.51,4.91,0.79,7.47,0.79c5.75,0,11.12-1.47,15.96-3.86
		l65.02,88.88v10.57L393.61,375.56z M449.61,213.78c9.49,0,17.21,7.72,17.21,17.21s-7.72,17.21-17.21,17.21
		c-9.49,0-17.21-7.72-17.21-17.21S440.12,213.78,449.61,213.78z M535.12,112.62l-69.67,85.91c-4.81-2.36-10.13-3.8-15.84-3.8
		c-1.17,0-2.27,0.24-3.42,0.35l-26.12-82.97c0.18-0.55,0.36-1.09,0.51-1.64h113.87C534.65,111.19,534.88,111.91,535.12,112.62z
		 M359.02,368.64c9.49,0,17.21,7.72,17.21,17.21c0,9.49-7.72,17.21-17.21,17.21c-9.49,0-17.21-7.72-17.21-17.21
		C341.8,376.36,349.52,368.64,359.02,368.64z M549.64,371.53c0-9.49,7.72-17.21,17.21-17.21c9.49,0,17.21,7.72,17.21,17.21
		s-7.72,17.21-17.21,17.21C557.36,388.74,549.64,381.02,549.64,371.53z M569.29,83.72c9.49,0,17.21,7.72,17.21,17.22
		s-7.72,17.21-17.21,17.21s-17.21-7.72-17.21-17.21S559.79,83.72,569.29,83.72z M385.76,83.72c9.49,0,17.21,7.72,17.21,17.22
		s-7.72,17.21-17.21,17.21c-9.49,0-17.21-7.72-17.21-17.21S376.26,83.72,385.76,83.72z M375.27,135.47L350.4,350.74
		c-2.58,0.63-5.02,1.57-7.35,2.72L236.61,249.55c3.27-5.45,5.27-11.75,5.27-18.55c0-6.54-1.88-12.6-4.92-17.91l121.33-88.74
		C362.73,129.55,368.57,133.43,375.27,135.47z M205.62,213.78c9.49,0,17.21,7.72,17.21,17.21s-7.72,17.21-17.21,17.21
		s-17.21-7.72-17.21-17.21S196.13,213.78,205.62,213.78z M205.62,267.26c6.26,0,12.07-1.74,17.21-4.55l105.86,103.35
		c-2.52,3.84-4.33,8.17-5.24,12.83l-128.31,46.02c-4.21-4.51-9.54-7.86-15.56-9.77l23.99-148.09
		C204.27,267.1,204.92,267.26,205.62,267.26z M151.48,449.55c0-9.49,7.72-17.21,17.21-17.21s17.21,7.72,17.21,17.21
		c0,9.49-7.72,17.21-17.21,17.21S151.48,459.05,151.48,449.55z M197.54,471.29l190.66,54.82c-0.93,3.21-1.59,6.53-1.59,10.03
		c0,3.37,0.61,6.57,1.47,9.66l-88.9,72.25c-6.45-5.88-14.93-9.56-24.32-9.56c-4.32,0-8.4,0.89-12.25,2.28l-71.17-133.21
		C193.72,475.71,195.77,473.63,197.54,471.29z M274.86,661.98c-9.49,0-17.21-7.72-17.21-17.21s7.72-17.21,17.21-17.21
		s17.21,7.72,17.21,17.21S284.35,661.98,274.86,661.98z M422.87,553.36c-9.49,0-17.21-7.72-17.21-17.21s7.72-17.21,17.21-17.21
		c9.49,0,17.21,7.72,17.21,17.21S432.37,553.36,422.87,553.36z M451.13,508.17l95.75-106.43c5.74,3.81,12.6,6.05,19.98,6.05
		c16.01,0,29.47-10.49,34.27-24.91l138.95,29.75c-0.96,3.25-1.63,6.62-1.63,10.18c0,1.89,0.28,3.71,0.56,5.53L451.13,508.17z
		 M774.7,440.03c-9.49,0-17.21-7.72-17.21-17.21s7.72-17.21,17.21-17.21c9.49,0,17.21,7.72,17.21,17.21S784.19,440.03,774.7,440.03z
		 M774.7,386.55c-9.05,0-17.24,3.45-23.6,8.96l-148.9-31.88c-0.93-4.14-2.58-7.98-4.79-11.46l170.51-80.68
		c4.09,9.92,12.49,17.5,22.82,20.72l-13.24,94.62C776.56,386.76,775.66,386.55,774.7,386.55z"/>
	<g>
		<rect x="427.07" y="953.76" class="st30" width="129.65" height="8.23"/>
		<rect x="427.07" y="985.14" class="st30" width="129.65" height="8.23"/>
	</g>
	<g>
		
			<rect x="452.29" y="973.05" transform="matrix(-1.836970e-16 1 -1 -1.836970e-16 1494.288 460.049)" class="st30" width="129.65" height="8.23"/>
		
			<rect x="401.86" y="973.05" transform="matrix(-1.836970e-16 1 -1 -1.836970e-16 1443.8525 510.4844)" class="st30" width="129.65" height="8.23"/>
	</g>
	<path class="st29" d="M519.47,1004.6h-55.13c-0.97,0-1.77-0.8-1.77-1.77V947.7c0-0.97,0.8-1.77,1.77-1.77h55.13
		c0.97,0,1.77,0.8,1.77,1.77v55.13C521.24,1003.8,520.44,1004.6,519.47,1004.6z"/>
</g>
</svg>
