<?xml version="1.0" encoding="utf-8"?>
<!-- Generator: Adobe Illustrator 24.3.0, SVG Export Plug-In . SVG Version: 6.00 Build 0)  -->
<svg version="1.1" id="Layer_1" xmlns="http://www.w3.org/2000/svg" xmlns:xlink="http://www.w3.org/1999/xlink" x="0px" y="0px"
	 viewBox="0 0 1080 1080" style="enable-background:new 0 0 1080 1080;" xml:space="preserve">
<style type="text/css">
	.st0{display:none;fill:#FFFFFF;}
	.st1{fill:url(#SVGID_1_);}
	.st2{fill:url(#SVGID_2_);}
	.st3{fill:url(#SVGID_3_);}
	.st4{fill:url(#SVGID_4_);}
	.st5{fill:url(#SVGID_5_);}
	.st6{fill:url(#SVGID_6_);}
	.st7{fill:url(#SVGID_7_);}
	.st8{fill:url(#SVGID_8_);}
	.st9{fill:url(#SVGID_9_);}
	.st10{fill:url(#SVGID_10_);}
	.st11{fill:url(#SVGID_11_);}
	.st12{fill:url(#SVGID_12_);}
	.st13{fill:url(#SVGID_13_);}
	.st14{fill:url(#SVGID_14_);}
	.st15{fill:url(#SVGID_15_);}
	.st16{fill:url(#SVGID_16_);}
	.st17{fill:url(#SVGID_17_);}
	.st18{fill:url(#SVGID_18_);}
	.st19{fill:url(#SVGID_19_);}
	.st20{fill:url(#SVGID_20_);}
	.st21{fill:url(#SVGID_21_);}
	.st22{fill:url(#SVGID_22_);}
	.st23{fill:url(#SVGID_23_);}
	.st24{fill:url(#SVGID_24_);}
</style>
<g>
	<g>
		<rect x="-406.31" y="-385.55" class="st0" width="1881.29" height="1859.74"/>
		<g>
			<g id="_x35_70_x2C__Business_x2C__consumer_x2C__insight_x2C__strategy">
				<g>
					<linearGradient id="SVGID_1_" gradientUnits="userSpaceOnUse" x1="500.4761" y1="870.7097" x2="571.96" y2="870.7097">
						<stop  offset="0.2593" style="stop-color:#FFDB6F"/>
						<stop  offset="1" style="stop-color:#FDBC5F"/>
					</linearGradient>
					<rect x="500.48" y="765.64" class="st1" width="71.48" height="210.15"/>
					<linearGradient id="SVGID_2_" gradientUnits="userSpaceOnUse" x1="295.4132" y1="869.7742" x2="468.494" y2="869.7742">
						<stop  offset="0.2593" style="stop-color:#FFDB6F"/>
						<stop  offset="1" style="stop-color:#FDBC5F"/>
					</linearGradient>
					<polygon class="st2" points="295.41,973.91 363.14,973.91 468.49,765.64 400.76,765.64 					"/>
					<linearGradient id="SVGID_3_" gradientUnits="userSpaceOnUse" x1="602.0627" y1="869.7742" x2="775.1425" y2="869.7742">
						<stop  offset="0.2593" style="stop-color:#FFDB6F"/>
						<stop  offset="1" style="stop-color:#FDBC5F"/>
					</linearGradient>
					<polygon class="st3" points="602.06,765.64 707.42,973.91 775.14,973.91 669.79,765.64 					"/>
					<linearGradient id="SVGID_4_" gradientUnits="userSpaceOnUse" x1="500.4761" y1="79.3874" x2="571.96" y2="79.3874">
						<stop  offset="0.2593" style="stop-color:#FFDB6F"/>
						<stop  offset="1" style="stop-color:#FDBC5F"/>
					</linearGradient>
					<path class="st4" d="M570.08,79.38c0-18.6-15.05-35.33-35.74-35.33c-20.7,0-33.86,16.74-33.86,35.33v35.34h71.48V79.38H570.08z
						"/>
					<linearGradient id="SVGID_5_" gradientUnits="userSpaceOnUse" x1="171.2436" y1="425.2878" x2="265.3113" y2="425.2878">
						<stop  offset="0.2593" style="stop-color:#FFDB6F"/>
						<stop  offset="1" style="stop-color:#FDBC5F"/>
					</linearGradient>
					<path class="st5" d="M265.31,425.29c0-26.03-20.7-46.49-47.03-46.49c-26.34,0-47.04,20.47-47.04,46.49
						c0,26.04,20.7,46.49,47.04,46.49C242.74,471.78,265.31,451.33,265.31,425.29z"/>
					<linearGradient id="SVGID_6_" gradientUnits="userSpaceOnUse" x1="7.5712" y1="425.2971" x2="427.1035" y2="425.2971">
						<stop  offset="0.2593" style="stop-color:#FFDB6F"/>
						<stop  offset="1" style="stop-color:#FDBC5F"/>
					</linearGradient>
					<path class="st6" d="M427.1,425.29c-52.68-68.8-129.81-107.86-210.71-107.86c-52.67,0-101.59,16.75-144.86,46.49l0,0
						c-24.45,16.75-45.15,37.19-63.96,61.37c18.82,24.19,41.39,44.64,63.96,61.39l0,0c43.27,29.75,94.07,46.49,144.86,46.49
						C297.29,533.17,372.55,494.1,427.1,425.29z M144.91,425.29c0-39.05,31.98-70.67,71.48-70.67c39.51,0,71.49,31.62,71.49,70.67
						c0,39.07-31.98,70.69-71.49,70.69C176.89,495.97,144.91,464.35,144.91,425.29z"/>
					<linearGradient id="SVGID_7_" gradientUnits="userSpaceOnUse" x1="77.1759" y1="485.7295" x2="995.2518" y2="485.7295">
						<stop  offset="0.2593" style="stop-color:#FFDB6F"/>
						<stop  offset="1" style="stop-color:#FDBC5F"/>
					</linearGradient>
					<path class="st7" d="M936.93,741.44c31.98,0,58.32-26.03,58.32-57.64V230.01H77.18V332.3c43.28-24.17,90.31-39.05,139.22-39.05
						c90.31,0,176.85,44.64,233.29,124.61c3.76,3.72,3.76,9.3,0,13.02c-58.32,78.09-142.98,124.59-233.29,124.59
						c-48.91,0-97.83-13-139.22-39.05V683.8c0,31.62,26.34,57.64,58.33,57.64h259.62h94.07h94.06h94.07H936.93z M771.38,661.48
						h-47.04V497.83h47.04V661.48z M840.99,661.48h-47.03V475.5h47.03V661.48z M865.44,451.33h47.04v210.15h-47.04V451.33z
						 M558.79,661.48h-47.03v-92.99h47.03V661.48z M538.1,508.98c-1.88,0-1.88,0-3.76,0c-5.65,0-9.41-3.7-11.29-7.43
						c-1.88-5.58,1.88-13.02,7.52-14.87l306.66-92.99c5.64-1.87,13.17,1.85,15.05,7.43c1.88,5.58-1.88,13.02-7.53,14.87
						L538.1,508.98z M630.29,661.48h-47.04V544.32h47.04V661.48z"/>
					<linearGradient id="SVGID_8_" gradientUnits="userSpaceOnUse" x1="5.691" y1="172.37" x2="1066.7441" y2="172.37">
						<stop  offset="0.2593" style="stop-color:#FFDB6F"/>
						<stop  offset="1" style="stop-color:#FDBC5F"/>
					</linearGradient>
					<path class="st8" d="M41.43,207.71H65.9h940.64h24.46c18.82,0,35.75-14.89,35.75-35.34s-15.05-35.34-35.75-35.34H583.25h-94.06
						H41.43c-18.82,0-35.74,14.89-35.74,35.34S22.62,207.71,41.43,207.71z"/>
					<linearGradient id="SVGID_9_" gradientUnits="userSpaceOnUse" x1="77.1759" y1="951.6104" x2="171.2436" y2="951.6104">
						<stop  offset="0.2593" style="stop-color:#FFDB6F"/>
						<stop  offset="1" style="stop-color:#FDBC5F"/>
					</linearGradient>
					<path class="st9" d="M124.21,905.12c-26.34,0-47.04,20.45-47.04,46.49c0,26.03,20.7,46.49,47.04,46.49
						c26.33,0,47.03-20.47,47.03-46.49C171.24,925.57,150.55,905.12,124.21,905.12z"/>
					<linearGradient id="SVGID_10_" gradientUnits="userSpaceOnUse" x1="901.1934" y1="1009.2551" x2="1017.8273" y2="1009.2551">
						<stop  offset="0.2593" style="stop-color:#FFDB6F"/>
						<stop  offset="1" style="stop-color:#FDBC5F"/>
					</linearGradient>
					<path class="st10" d="M959.51,951.61c-31.98,0-58.32,26.03-58.32,57.64c0,31.62,26.33,57.64,58.32,57.64
						s58.32-26.03,58.32-57.64C1017.83,977.64,991.49,951.61,959.51,951.61z"/>
					<linearGradient id="SVGID_11_" gradientUnits="userSpaceOnUse" x1="229.5689" y1="869.7742" x2="278.4783" y2="869.7742">
						<stop  offset="0.2593" style="stop-color:#FFDB6F"/>
						<stop  offset="1" style="stop-color:#FDBC5F"/>
					</linearGradient>
					<path class="st11" d="M254.02,845.6c13.5,0,24.46,10.83,24.46,24.17c0,13.35-10.95,24.17-24.46,24.17
						c-13.51,0-24.45-10.82-24.45-24.17C229.57,856.43,240.51,845.6,254.02,845.6z"/>
					<linearGradient id="SVGID_12_" gradientUnits="userSpaceOnUse" x1="16.9778" y1="1033.428" x2="65.8965" y2="1033.428">
						<stop  offset="0.2593" style="stop-color:#FFDB6F"/>
						<stop  offset="1" style="stop-color:#FDBC5F"/>
					</linearGradient>
					<path class="st12" d="M41.43,1009.26c13.51,0,24.46,10.83,24.46,24.17c0,13.35-10.95,24.17-24.46,24.17
						c-13.5,0-24.46-10.82-24.46-24.17C16.98,1020.08,27.93,1009.26,41.43,1009.26z"/>
					<linearGradient id="SVGID_13_" gradientUnits="userSpaceOnUse" x1="840.9873" y1="893.9472" x2="889.9047" y2="893.9472">
						<stop  offset="0.2593" style="stop-color:#FFDB6F"/>
						<stop  offset="1" style="stop-color:#FDBC5F"/>
					</linearGradient>
					<path class="st13" d="M865.44,869.77c13.51,0,24.46,10.83,24.46,24.17c0,13.35-10.95,24.17-24.46,24.17
						c-13.5,0-24.45-10.82-24.45-24.17C840.99,880.6,851.94,869.77,865.44,869.77z"/>
					<linearGradient id="SVGID_14_" gradientUnits="userSpaceOnUse" x1="910.6" y1="57.0667" x2="959.5094" y2="57.0667">
						<stop  offset="0.2593" style="stop-color:#FFDB6F"/>
						<stop  offset="1" style="stop-color:#FDBC5F"/>
					</linearGradient>
					<path class="st14" d="M935.06,32.89c13.5,0,24.45,10.83,24.45,24.17c0,13.36-10.95,24.18-24.45,24.18
						c-13.51,0-24.46-10.82-24.46-24.18C910.6,43.71,921.54,32.89,935.06,32.89z"/>
					<linearGradient id="SVGID_15_" gradientUnits="userSpaceOnUse" x1="840.9873" y1="57.0667" x2="889.9047" y2="57.0667">
						<stop  offset="0.2593" style="stop-color:#FFDB6F"/>
						<stop  offset="1" style="stop-color:#FDBC5F"/>
					</linearGradient>
					<path class="st15" d="M865.44,32.89c13.51,0,24.46,10.83,24.46,24.17c0,13.36-10.95,24.18-24.46,24.18
						c-13.5,0-24.45-10.82-24.45-24.18C840.99,43.71,851.94,32.89,865.44,32.89z"/>
					<linearGradient id="SVGID_16_" gradientUnits="userSpaceOnUse" x1="769.4943" y1="57.0667" x2="818.4124" y2="57.0667">
						<stop  offset="0.2593" style="stop-color:#FFDB6F"/>
						<stop  offset="1" style="stop-color:#FDBC5F"/>
					</linearGradient>
					<path class="st16" d="M793.96,32.89c13.5,0,24.45,10.83,24.45,24.17c0,13.36-10.95,24.18-24.45,24.18
						c-13.51,0-24.46-10.82-24.46-24.18C769.49,43.71,780.45,32.89,793.96,32.89z"/>
					<linearGradient id="SVGID_17_" gradientUnits="userSpaceOnUse" x1="699.89" y1="57.0667" x2="748.8082" y2="57.0667">
						<stop  offset="0.2593" style="stop-color:#FFDB6F"/>
						<stop  offset="1" style="stop-color:#FDBC5F"/>
					</linearGradient>
					<path class="st17" d="M724.34,32.89c13.51,0,24.46,10.83,24.46,24.17c0,13.36-10.95,24.18-24.46,24.18
						c-13.5,0-24.45-10.82-24.45-24.18C699.89,43.71,710.84,32.89,724.34,32.89z"/>
					<linearGradient id="SVGID_18_" gradientUnits="userSpaceOnUse" x1="628.3969" y1="57.0667" x2="677.3152" y2="57.0667">
						<stop  offset="0.2593" style="stop-color:#FFDB6F"/>
						<stop  offset="1" style="stop-color:#FDBC5F"/>
					</linearGradient>
					<path class="st18" d="M652.86,32.89c13.5,0,24.45,10.83,24.45,24.17c0,13.36-10.95,24.18-24.45,24.18
						c-13.51,0-24.46-10.82-24.46-24.18C628.4,43.71,639.35,32.89,652.86,32.89z"/>
					<linearGradient id="SVGID_19_" gradientUnits="userSpaceOnUse" x1="393.2413" y1="57.0667" x2="442.1508" y2="57.0667">
						<stop  offset="0.2593" style="stop-color:#FFDB6F"/>
						<stop  offset="1" style="stop-color:#FDBC5F"/>
					</linearGradient>
					<path class="st19" d="M417.7,32.89c13.5,0,24.46,10.83,24.46,24.17c0,13.36-10.95,24.18-24.46,24.18
						c-13.51,0-24.45-10.82-24.45-24.18C393.24,43.71,404.18,32.89,417.7,32.89z"/>
					<linearGradient id="SVGID_20_" gradientUnits="userSpaceOnUse" x1="323.6273" y1="57.0667" x2="372.5461" y2="57.0667">
						<stop  offset="0.2593" style="stop-color:#FFDB6F"/>
						<stop  offset="1" style="stop-color:#FDBC5F"/>
					</linearGradient>
					<path class="st20" d="M348.08,32.89c13.51,0,24.46,10.83,24.46,24.17c0,13.36-10.95,24.18-24.46,24.18
						c-13.5,0-24.46-10.82-24.46-24.18C323.63,43.71,334.58,32.89,348.08,32.89z"/>
					<linearGradient id="SVGID_21_" gradientUnits="userSpaceOnUse" x1="252.1443" y1="57.0667" x2="301.0538" y2="57.0667">
						<stop  offset="0.2593" style="stop-color:#FFDB6F"/>
						<stop  offset="1" style="stop-color:#FDBC5F"/>
					</linearGradient>
					<path class="st21" d="M276.6,32.89c13.5,0,24.46,10.83,24.46,24.17c0,13.36-10.95,24.18-24.46,24.18s-24.45-10.82-24.45-24.18
						C252.14,43.71,263.09,32.89,276.6,32.89z"/>
					<linearGradient id="SVGID_22_" gradientUnits="userSpaceOnUse" x1="182.5304" y1="57.0667" x2="231.4491" y2="57.0667">
						<stop  offset="0.2593" style="stop-color:#FFDB6F"/>
						<stop  offset="1" style="stop-color:#FDBC5F"/>
					</linearGradient>
					<path class="st22" d="M206.99,32.89c13.5,0,24.46,10.83,24.46,24.17c0,13.36-10.95,24.18-24.46,24.18
						c-13.51,0-24.46-10.82-24.46-24.18C182.53,43.71,193.48,32.89,206.99,32.89z"/>
					<linearGradient id="SVGID_23_" gradientUnits="userSpaceOnUse" x1="111.0474" y1="57.0667" x2="159.955" y2="57.0667">
						<stop  offset="0.2593" style="stop-color:#FFDB6F"/>
						<stop  offset="1" style="stop-color:#FDBC5F"/>
					</linearGradient>
					<path class="st23" d="M135.5,32.89c13.5,0,24.45,10.83,24.45,24.17c0,13.36-10.95,24.18-24.45,24.18s-24.45-10.82-24.45-24.18
						C111.05,43.71,122,32.89,135.5,32.89z"/>
					<linearGradient id="SVGID_24_" gradientUnits="userSpaceOnUse" x1="1029.114" y1="916.2678" x2="1078.0328" y2="916.2678">
						<stop  offset="0.2593" style="stop-color:#FFDB6F"/>
						<stop  offset="1" style="stop-color:#FDBC5F"/>
					</linearGradient>
					<path class="st24" d="M1053.58,892.09c13.5,0,24.46,10.83,24.46,24.17c0,13.35-10.95,24.17-24.46,24.17
						c-13.51,0-24.46-10.82-24.46-24.17C1029.11,902.92,1040.07,892.09,1053.58,892.09z"/>
				</g>
			</g>
			<g id="Layer_1_15_">
			</g>
		</g>
	</g>
</g>
</svg>
